<svg xmlns="http://www.w3.org/2000/svg" xmlns:xlink="http://www.w3.org/1999/xlink" version="1.1" viewBox="0 0 64 64">
  <defs>
    <style>
      .st0 {
        stroke: #fff5d4;
      }

      .st0, .st1, .st2, .st3, .st4, .st5, .st6, .st7, .st8, .st9, .st10, .st11, .st12, .st13, .st14, .st15, .st16 {
        fill: none;
      }

      .st0, .st1, .st13, .st14, .st15, .st16 {
        stroke-miterlimit: 10;
      }

      .st0, .st13, .st14, .st15, .st16 {
        stroke-width: 2.111px;
      }

      .st17 {
        fill: url(#Unbenannter_Verlauf);
      }

      .st18 {
        fill: url(#Unbenannter_Verlauf_2);
      }

      .st19 {
        fill: url(#Unbenannter_Verlauf_4);
      }

      .st20 {
        fill: url(#Unbenannter_Verlauf_3);
      }

      .st21 {
        fill: url(#Unbenannter_Verlauf_8);
      }

      .st22 {
        fill: url(#Unbenannter_Verlauf_6);
      }

      .st23 {
        fill: url(#Unbenannter_Verlauf_7);
      }

      .st24 {
        fill: url(#Unbenannter_Verlauf_5);
      }

      .st25 {
        fill: url(#Unbenannter_Verlauf_9);
      }

      .st1 {
        stroke: #f2d2fa;
      }

      .st1, .st6, .st7 {
        stroke-width: .633px;
      }

      .st2 {
        stroke: url(#Unbenannter_Verlauf_20);
      }

      .st2, .st3, .st4, .st5 {
        stroke-width: .422px;
      }

      .st2, .st3, .st4, .st5, .st6, .st7, .st8, .st9, .st10, .st11, .st12 {
        stroke-linecap: round;
      }

      .st3 {
        stroke: url(#Unbenannter_Verlauf_27);
      }

      .st4 {
        stroke: url(#Unbenannter_Verlauf_28);
      }

      .st5 {
        stroke: url(#Unbenannter_Verlauf_29);
      }

      .st6 {
        stroke: url(#Unbenannter_Verlauf_21);
      }

      .st7 {
        stroke: url(#Unbenannter_Verlauf_26);
      }

      .st8 {
        stroke: url(#Unbenannter_Verlauf_24);
      }

      .st8, .st9, .st10, .st11, .st12 {
        stroke-width: 1.267px;
      }

      .st9 {
        stroke: url(#Unbenannter_Verlauf_23);
      }

      .st10 {
        stroke: url(#Unbenannter_Verlauf_25);
      }

      .st11 {
        stroke: url(#Unbenannter_Verlauf_19);
      }

      .st12 {
        stroke: url(#Unbenannter_Verlauf_12);
      }

      .st13 {
        stroke: #e8c7f7;
      }

      .st26 {
        fill: #f23243;
        fill-rule: evenodd;
      }

      .st14 {
        stroke: #edd1f8;
      }

      .st15 {
        stroke: #f0d6f8;
      }

      .st27 {
        fill: url(#Unbenannter_Verlauf_14);
      }

      .st28 {
        fill: url(#Unbenannter_Verlauf_15);
      }

      .st29 {
        fill: url(#Unbenannter_Verlauf_13);
      }

      .st30 {
        fill: url(#Unbenannter_Verlauf_22);
      }

      .st31 {
        fill: url(#Unbenannter_Verlauf_18);
      }

      .st32 {
        fill: url(#Unbenannter_Verlauf_16);
      }

      .st33 {
        fill: url(#Unbenannter_Verlauf_17);
      }

      .st34 {
        fill: url(#Unbenannter_Verlauf_10);
      }

      .st35 {
        fill: url(#Unbenannter_Verlauf_11);
      }

      .st16 {
        stroke: #e5c1f6;
      }
    </style>
    <radialGradient id="Unbenannter_Verlauf" data-name="Unbenannter Verlauf" cx="-985.045" cy="168.225" fx="-985.045" fy="168.225" r="2.111" gradientTransform="translate(13197.527 2281.778) scale(13.365 -13.365)" gradientUnits="userSpaceOnUse">
      <stop offset=".24" stop-color="#fd4d67"/>
      <stop offset=".854" stop-color="#ff7f9f"/>
    </radialGradient>
    <linearGradient id="Unbenannter_Verlauf_2" data-name="Unbenannter Verlauf 2" x1="32.001" y1="-1.415" x2="32.001" y2="15.609" gradientTransform="translate(0 63.969) scale(1 -1)" gradientUnits="userSpaceOnUse">
      <stop offset="0" stop-color="#f96bc3"/>
      <stop offset="1" stop-color="#f96bc3" stop-opacity="0"/>
    </linearGradient>
    <radialGradient id="Unbenannter_Verlauf_3" data-name="Unbenannter Verlauf 3" cx="-1038.417" cy="427.571" fx="-1038.417" fy="427.571" r="2.111" gradientTransform="translate(-1622.008 5744.643) rotate(88.076) scale(5.472 -4.317)" gradientUnits="userSpaceOnUse">
      <stop offset="0" stop-color="#ff85a0"/>
      <stop offset="1" stop-color="#ff85a0" stop-opacity="0"/>
    </radialGradient>
    <radialGradient id="Unbenannter_Verlauf_4" data-name="Unbenannter Verlauf 4" cx="-1822.188" cy="1054.054" fx="-1822.188" fy="1054.054" r="2.111" gradientTransform="translate(-2414.746 244.263) rotate(162.204) scale(1.329 -.519)" gradientUnits="userSpaceOnUse">
      <stop offset="0" stop-color="#ffa2b7"/>
      <stop offset="1" stop-color="#ffa2b7" stop-opacity="0"/>
    </radialGradient>
    <radialGradient id="Unbenannter_Verlauf_5" data-name="Unbenannter Verlauf 5" cx="-1126.728" cy="-108.87" fx="-1126.728" fy="-108.87" r="2.111" gradientTransform="translate(-9314.217 -11022.613) rotate(-129.074) scale(12.841 -2.644)" gradientUnits="userSpaceOnUse">
      <stop offset="0" stop-color="#f63d51"/>
      <stop offset="1" stop-color="#fd5b78" stop-opacity="0"/>
    </radialGradient>
    <radialGradient id="Unbenannter_Verlauf_6" data-name="Unbenannter Verlauf 6" cx="-1014.146" cy="-154.214" fx="-1014.146" fy="-154.214" r="2.111" gradientTransform="translate(8680.741 -9536.476) rotate(-46.096) scale(12.708 -2.617)" gradientUnits="userSpaceOnUse">
      <stop offset="0" stop-color="#f63d51"/>
      <stop offset="1" stop-color="#fd5b78" stop-opacity="0"/>
    </radialGradient>
    <radialGradient id="Unbenannter_Verlauf_7" data-name="Unbenannter Verlauf 7" cx="-960.727" cy="337.845" fx="-960.727" fy="337.845" r="2.111" gradientTransform="translate(8430.692 4564.855) rotate(24.22) scale(9.903 -2.039)" gradientUnits="userSpaceOnUse">
      <stop offset="0" stop-color="#f63d51"/>
      <stop offset="1" stop-color="#fd5b78" stop-opacity="0"/>
    </radialGradient>
    <radialGradient id="Unbenannter_Verlauf_8" data-name="Unbenannter Verlauf 8" cx="-1055.944" cy="755.821" fx="-1055.944" fy="755.821" r="2.111" gradientTransform="translate(-1740.212 9619.325) rotate(92.097) scale(9.131 -1.88)" gradientUnits="userSpaceOnUse">
      <stop offset="0" stop-color="#f63d51"/>
      <stop offset="1" stop-color="#fd5b78" stop-opacity="0"/>
    </radialGradient>
    <radialGradient id="Unbenannter_Verlauf_9" data-name="Unbenannter Verlauf 9" cx="-1163.152" cy="413.755" fx="-1163.152" fy="413.755" r="2.111" gradientTransform="translate(-11235.144 3155.15) rotate(160.322) scale(10.023 -2.064)" gradientUnits="userSpaceOnUse">
      <stop offset="0" stop-color="#f63d51"/>
      <stop offset="1" stop-color="#fd5b78" stop-opacity="0"/>
    </radialGradient>
    <radialGradient id="Unbenannter_Verlauf_10" data-name="Unbenannter Verlauf 10" cx="-1005.093" cy="-13.895" fx="-1005.093" fy="-13.895" r="2.111" gradientTransform="translate(498.43 -2179.383) rotate(-75.579) scale(2.259 -5.571)" gradientUnits="userSpaceOnUse">
      <stop offset="0" stop-color="#ff689a"/>
      <stop offset="1" stop-color="#ff689a" stop-opacity="0"/>
    </radialGradient>
    <radialGradient id="Unbenannter_Verlauf_11" data-name="Unbenannter Verlauf 11" cx="-1195.313" cy="47.424" fx="-1195.313" fy="47.424" r="2.111" gradientTransform="translate(-557.62 -3715.957) rotate(-104.859) scale(3.168 -7.836)" gradientUnits="userSpaceOnUse">
      <stop offset="0" stop-color="#ff689a"/>
      <stop offset="1" stop-color="#ff689a" stop-opacity="0"/>
    </radialGradient>
    <linearGradient id="Unbenannter_Verlauf_12" data-name="Unbenannter Verlauf 12" x1="46.854" y1="5.329" x2="46.693" y2="9.754" gradientTransform="translate(0 63.969) scale(1 -1)" gradientUnits="userSpaceOnUse">
      <stop offset="0" stop-color="#ffa2b3"/>
      <stop offset="1" stop-color="#ffa2b3" stop-opacity="0"/>
    </linearGradient>
    <radialGradient id="Unbenannter_Verlauf_13" data-name="Unbenannter Verlauf 13" cx="-1574.894" cy="957.837" fx="-1574.894" fy="957.837" r="2.111" gradientTransform="translate(-2083.255 745.323) rotate(131.934) scale(1.239 -1.139)" gradientUnits="userSpaceOnUse">
      <stop offset="0" stop-color="#f3dcf8"/>
      <stop offset="1" stop-color="#e2c3ec"/>
    </radialGradient>
    <radialGradient id="Unbenannter_Verlauf_14" data-name="Unbenannter Verlauf 14" cx="-1761.227" cy="849.429" fx="-1761.227" fy="849.429" r="2.111" gradientTransform="translate(-2185.323 461.118) rotate(145.132) scale(1.178 -1.083)" gradientUnits="userSpaceOnUse">
      <stop offset="0" stop-color="#f3dcf8"/>
      <stop offset="1" stop-color="#e2c3ec"/>
    </radialGradient>
    <radialGradient id="Unbenannter_Verlauf_15" data-name="Unbenannter Verlauf 15" cx="-1849.901" cy="1217.7" fx="-1849.901" fy="1217.7" r="2.111" gradientTransform="translate(-1829.663 452.205) rotate(136.397) scale(.885 -.813)" gradientUnits="userSpaceOnUse">
      <stop offset="0" stop-color="#f3dcf8"/>
      <stop offset="1" stop-color="#dfb6f4"/>
    </radialGradient>
    <radialGradient id="Unbenannter_Verlauf_16" data-name="Unbenannter Verlauf 16" cx="-1845.016" cy="1212.64" fx="-1845.016" fy="1212.64" r="2.111" gradientTransform="translate(-1835.033 452.205) rotate(136.397) scale(.885 -.813)" gradientUnits="userSpaceOnUse">
      <stop offset="0" stop-color="#f3dcf8"/>
      <stop offset="1" stop-color="#dfb6f4"/>
    </radialGradient>
    <radialGradient id="Unbenannter_Verlauf_17" data-name="Unbenannter Verlauf 17" cx="-1570.18" cy="956.741" fx="-1570.18" fy="956.741" r="2.111" gradientTransform="translate(-2087.605 748.483) rotate(131.934) scale(1.239 -1.139)" gradientUnits="userSpaceOnUse">
      <stop offset="0" stop-color="#f3dcf8"/>
      <stop offset="1" stop-color="#dfb6f4"/>
    </radialGradient>
    <radialGradient id="Unbenannter_Verlauf_18" data-name="Unbenannter Verlauf 18" cx="-1168.196" cy="354.583" fx="-1168.196" fy="354.583" r="2.111" gradientTransform="translate(-4909.1 3744.565) rotate(124.875) scale(5.028 -5.45)" gradientUnits="userSpaceOnUse">
      <stop offset="0" stop-color="#f3dcf8"/>
      <stop offset="1" stop-color="#dfb6f4"/>
    </radialGradient>
    <linearGradient id="Unbenannter_Verlauf_19" data-name="Unbenannter Verlauf 19" x1="37.149" y1="58.834" x2="42.63" y2="43.63" gradientTransform="translate(0 63.969) scale(1 -1)" gradientUnits="userSpaceOnUse">
      <stop offset="0" stop-color="#ffa2b3"/>
      <stop offset="1" stop-color="#ffa2b3" stop-opacity="0"/>
    </linearGradient>
    <linearGradient id="Unbenannter_Verlauf_20" data-name="Unbenannter Verlauf 20" x1="29.524" y1="65.97" x2="20.576" y2="43.752" gradientTransform="translate(0 63.969) scale(1 -1)" gradientUnits="userSpaceOnUse">
      <stop offset="0" stop-color="#ffa2b3"/>
      <stop offset="1" stop-color="#ffa2b3" stop-opacity="0"/>
    </linearGradient>
    <linearGradient id="Unbenannter_Verlauf_21" data-name="Unbenannter Verlauf 21" x1="21.032" y1="45.77" x2="22.991" y2="34.169" gradientTransform="translate(0 63.969) scale(1 -1)" gradientUnits="userSpaceOnUse">
      <stop offset="0" stop-color="#ffa2b3"/>
      <stop offset="1" stop-color="#ffa2b3" stop-opacity="0"/>
    </linearGradient>
    <linearGradient id="Unbenannter_Verlauf_22" data-name="Unbenannter Verlauf 22" x1="29.286" y1="59.482" x2="30.952" y2="56.397" gradientTransform="translate(0 63.969) scale(1 -1)" gradientUnits="userSpaceOnUse">
      <stop offset="0" stop-color="#ff9aa9"/>
      <stop offset="1" stop-color="#ff9aa9" stop-opacity="0"/>
    </linearGradient>
    <linearGradient id="Unbenannter_Verlauf_23" data-name="Unbenannter Verlauf 23" x1="54.119" y1="42.957" x2="51.906" y2="48.884" gradientTransform="translate(0 63.969) scale(1 -1)" gradientUnits="userSpaceOnUse">
      <stop offset="0" stop-color="#ffa2b3"/>
      <stop offset="1" stop-color="#ffa2b3" stop-opacity="0"/>
    </linearGradient>
    <linearGradient id="Unbenannter_Verlauf_24" data-name="Unbenannter Verlauf 24" x1="62.954" y1="36.497" x2="52.87" y2="27.851" gradientTransform="translate(0 63.969) scale(1 -1)" gradientUnits="userSpaceOnUse">
      <stop offset="0" stop-color="#ffa2b3"/>
      <stop offset="1" stop-color="#ffa2b3" stop-opacity="0"/>
    </linearGradient>
    <linearGradient id="Unbenannter_Verlauf_25" data-name="Unbenannter Verlauf 25" x1="55.077" y1="10.662" x2="37.331" y2="30.791" gradientTransform="translate(0 63.969) scale(1 -1)" gradientUnits="userSpaceOnUse">
      <stop offset="0" stop-color="#ffa2b3"/>
      <stop offset="1" stop-color="#ffa2b3" stop-opacity="0"/>
    </linearGradient>
    <linearGradient id="Unbenannter_Verlauf_26" data-name="Unbenannter Verlauf 26" x1="24.699" y1="23.618" x2="36.094" y2="9.075" gradientTransform="translate(0 63.969) scale(1 -1)" gradientUnits="userSpaceOnUse">
      <stop offset="0" stop-color="#ffa2b3"/>
      <stop offset="1" stop-color="#ffa2b3" stop-opacity="0"/>
    </linearGradient>
    <linearGradient id="Unbenannter_Verlauf_27" data-name="Unbenannter Verlauf 27" x1="11.189" y1="49.07" x2="10.52" y2="41.244" gradientTransform="translate(0 63.969) scale(1 -1)" gradientUnits="userSpaceOnUse">
      <stop offset="0" stop-color="#ffa2b3"/>
      <stop offset="1" stop-color="#ffa2b3" stop-opacity="0"/>
    </linearGradient>
    <linearGradient id="Unbenannter_Verlauf_28" data-name="Unbenannter Verlauf 28" x1="10.713" y1="41.352" x2="7.257" y2="24.564" gradientTransform="translate(0 63.969) scale(1 -1)" gradientUnits="userSpaceOnUse">
      <stop offset="0" stop-color="#ffa2b3"/>
      <stop offset="1" stop-color="#ffa2b3" stop-opacity="0"/>
    </linearGradient>
    <linearGradient id="Unbenannter_Verlauf_29" data-name="Unbenannter Verlauf 29" x1="9.613" y1="10.191" x2="20.903" y2="27.679" gradientTransform="translate(0 63.969) scale(1 -1)" gradientUnits="userSpaceOnUse">
      <stop offset="0" stop-color="#ffa2b3"/>
      <stop offset="1" stop-color="#ffa2b3" stop-opacity="0"/>
    </linearGradient>
  </defs>
  <path class="st17" d="M53.592,38.892c5.215-1.689,8.361-6.735,7.939-11.992-.048-.496-.418-.901-.908-.992,0,0-1.879-.401-2.301-.486-.211-.042-.296-.317-.169-.464.274-.296,1.583-1.774,1.583-1.774.338-.359.401-.929.148-1.351-2.724-4.497-8.234-6.735-13.47-5.025-1.499.486-2.808,1.372-3.948,2.491.718-1.436,1.14-2.935,1.14-4.518,0-5.489-3.822-10.05-8.952-11.253-.489-.098-.988.121-1.246.549,0,0-.971,1.668-1.182,2.048-.106.19-.401.169-.486.021-.211-.359-1.182-2.069-1.182-2.069-.253-.422-.76-.676-1.225-.549-5.109,1.182-8.952,5.743-8.952,11.232,0,1.583.443,3.083,1.14,4.518-1.14-1.119-2.428-1.985-3.927-2.47-5.236-1.71-10.747.528-13.47,5.025-.253.422-.19.971.148,1.351,0,0,1.288,1.436,1.583,1.752.148.148.042.443-.148.486l-2.322.486c-.486.106-.866.507-.908.992-.461,5.356,2.828,10.325,7.939,11.992,1.52.486,3.083.549,4.687.296-1.436.739-2.703,1.71-3.631,2.998-3.23,4.434-2.808,10.367.633,14.357.317.38.866.486,1.33.274,0,0,1.752-.781,2.154-.971.19-.084.422.084.401.274l-.253,2.365c-.042.486.211.992.676,1.182,4.856,2.027,10.62.591,13.85-3.843.929-1.288,1.457-2.745,1.731-4.328.274,1.583.802,3.061,1.731,4.328,3.23,4.434,8.994,5.87,13.85,3.843.464-.19.718-.676.676-1.182,0,0-.211-1.921-.253-2.344-.021-.211.211-.38.401-.296l2.175.971c.443.211,1.013.106,1.33-.274,3.441-3.99,3.864-9.923.633-14.357-.929-1.288-2.196-2.238-3.631-2.998,1.605.253,3.167.19,4.687-.296"/>
  <path class="st18" d="M53.592,38.892c5.215-1.689,8.361-6.735,7.939-11.992-.048-.496-.418-.901-.908-.992,0,0-1.879-.401-2.301-.486-.211-.042-.296-.317-.169-.464.274-.296,1.583-1.774,1.583-1.774.338-.359.401-.929.148-1.351-2.724-4.497-8.234-6.735-13.47-5.025-1.499.486-2.808,1.372-3.948,2.491.718-1.436,1.14-2.935,1.14-4.518,0-5.489-3.822-10.05-8.952-11.253-.489-.098-.988.121-1.246.549,0,0-.971,1.668-1.182,2.048-.106.19-.401.169-.486.021-.211-.359-1.182-2.069-1.182-2.069-.253-.422-.76-.676-1.225-.549-5.109,1.182-8.952,5.743-8.952,11.232,0,1.583.443,3.083,1.14,4.518-1.14-1.119-2.428-1.985-3.927-2.47-5.236-1.71-10.747.528-13.47,5.025-.253.422-.19.971.148,1.351,0,0,1.288,1.436,1.583,1.752.148.148.042.443-.148.486l-2.322.486c-.486.106-.866.507-.908.992-.461,5.356,2.828,10.325,7.939,11.992,1.52.486,3.083.549,4.687.296-1.436.739-2.703,1.71-3.631,2.998-3.23,4.434-2.808,10.367.633,14.357.317.38.866.486,1.33.274,0,0,1.752-.781,2.154-.971.19-.084.422.084.401.274l-.253,2.365c-.042.486.211.992.676,1.182,4.856,2.027,10.62.591,13.85-3.843.929-1.288,1.457-2.745,1.731-4.328.274,1.583.802,3.061,1.731,4.328,3.23,4.434,8.994,5.87,13.85,3.843.464-.19.718-.676.676-1.182,0,0-.211-1.921-.253-2.344-.021-.211.211-.38.401-.296l2.175.971c.443.211,1.013.106,1.33-.274,3.441-3.99,3.864-9.923.633-14.357-.929-1.288-2.196-2.238-3.631-2.998,1.605.253,3.167.19,4.687-.296"/>
  <path class="st20" d="M53.592,38.892c5.215-1.689,8.361-6.735,7.939-11.992-.048-.496-.418-.901-.908-.992,0,0-1.879-.401-2.301-.486-.211-.042-.296-.317-.169-.464.274-.296,1.583-1.774,1.583-1.774.338-.359.401-.929.148-1.351-2.724-4.497-8.234-6.735-13.47-5.025-1.499.486-2.808,1.372-3.948,2.491.718-1.436,1.14-2.935,1.14-4.518,0-5.489-3.822-10.05-8.952-11.253-.489-.098-.988.121-1.246.549,0,0-.971,1.668-1.182,2.048-.106.19-.401.169-.486.021-.211-.359-1.182-2.069-1.182-2.069-.253-.422-.76-.676-1.225-.549-5.109,1.182-8.952,5.743-8.952,11.232,0,1.583.443,3.083,1.14,4.518-1.14-1.119-2.428-1.985-3.927-2.47-5.236-1.71-10.747.528-13.47,5.025-.253.422-.19.971.148,1.351,0,0,1.288,1.436,1.583,1.752.148.148.042.443-.148.486l-2.322.486c-.486.106-.866.507-.908.992-.461,5.356,2.828,10.325,7.939,11.992,1.52.486,3.083.549,4.687.296-1.436.739-2.703,1.71-3.631,2.998-3.23,4.434-2.808,10.367.633,14.357.317.38.866.486,1.33.274,0,0,1.752-.781,2.154-.971.19-.084.422.084.401.274l-.253,2.365c-.042.486.211.992.676,1.182,4.856,2.027,10.62.591,13.85-3.843.929-1.288,1.457-2.745,1.731-4.328.274,1.583.802,3.061,1.731,4.328,3.23,4.434,8.994,5.87,13.85,3.843.464-.19.718-.676.676-1.182,0,0-.211-1.921-.253-2.344-.021-.211.211-.38.401-.296l2.175.971c.443.211,1.013.106,1.33-.274,3.441-3.99,3.864-9.923.633-14.357-.929-1.288-2.196-2.238-3.631-2.998,1.605.253,3.167.19,4.687-.296"/>
  <path class="st19" d="M53.592,38.892c5.215-1.689,8.361-6.735,7.939-11.992-.048-.496-.418-.901-.908-.992,0,0-1.879-.401-2.301-.486-.211-.042-.296-.317-.169-.464.274-.296,1.583-1.774,1.583-1.774.338-.359.401-.929.148-1.351-2.724-4.497-8.234-6.735-13.47-5.025-1.499.486-2.808,1.372-3.948,2.491.718-1.436,1.14-2.935,1.14-4.518,0-5.489-3.822-10.05-8.952-11.253-.489-.098-.988.121-1.246.549,0,0-.971,1.668-1.182,2.048-.106.19-.401.169-.486.021-.211-.359-1.182-2.069-1.182-2.069-.253-.422-.76-.676-1.225-.549-5.109,1.182-8.952,5.743-8.952,11.232,0,1.583.443,3.083,1.14,4.518-1.14-1.119-2.428-1.985-3.927-2.47-5.236-1.71-10.747.528-13.47,5.025-.253.422-.19.971.148,1.351,0,0,1.288,1.436,1.583,1.752.148.148.042.443-.148.486l-2.322.486c-.486.106-.866.507-.908.992-.461,5.356,2.828,10.325,7.939,11.992,1.52.486,3.083.549,4.687.296-1.436.739-2.703,1.71-3.631,2.998-3.23,4.434-2.808,10.367.633,14.357.317.38.866.486,1.33.274,0,0,1.752-.781,2.154-.971.19-.084.422.084.401.274l-.253,2.365c-.042.486.211.992.676,1.182,4.856,2.027,10.62.591,13.85-3.843.929-1.288,1.457-2.745,1.731-4.328.274,1.583.802,3.061,1.731,4.328,3.23,4.434,8.994,5.87,13.85,3.843.464-.19.718-.676.676-1.182,0,0-.211-1.921-.253-2.344-.021-.211.211-.38.401-.296l2.175.971c.443.211,1.013.106,1.33-.274,3.441-3.99,3.864-9.923.633-14.357-.929-1.288-2.196-2.238-3.631-2.998,1.605.253,3.167.19,4.687-.296"/>
  <path class="st24" d="M53.592,38.892c5.215-1.689,8.361-6.735,7.939-11.992-.048-.496-.418-.901-.908-.992,0,0-1.879-.401-2.301-.486-.211-.042-.296-.317-.169-.464.274-.296,1.583-1.774,1.583-1.774.338-.359.401-.929.148-1.351-2.724-4.497-8.234-6.735-13.47-5.025-1.499.486-2.808,1.372-3.948,2.491.718-1.436,1.14-2.935,1.14-4.518,0-5.489-3.822-10.05-8.952-11.253-.489-.098-.988.121-1.246.549,0,0-.971,1.668-1.182,2.048-.106.19-.401.169-.486.021-.211-.359-1.182-2.069-1.182-2.069-.253-.422-.76-.676-1.225-.549-5.109,1.182-8.952,5.743-8.952,11.232,0,1.583.443,3.083,1.14,4.518-1.14-1.119-2.428-1.985-3.927-2.47-5.236-1.71-10.747.528-13.47,5.025-.253.422-.19.971.148,1.351,0,0,1.288,1.436,1.583,1.752.148.148.042.443-.148.486l-2.322.486c-.486.106-.866.507-.908.992-.461,5.356,2.828,10.325,7.939,11.992,1.52.486,3.083.549,4.687.296-1.436.739-2.703,1.71-3.631,2.998-3.23,4.434-2.808,10.367.633,14.357.317.38.866.486,1.33.274,0,0,1.752-.781,2.154-.971.19-.084.422.084.401.274l-.253,2.365c-.042.486.211.992.676,1.182,4.856,2.027,10.62.591,13.85-3.843.929-1.288,1.457-2.745,1.731-4.328.274,1.583.802,3.061,1.731,4.328,3.23,4.434,8.994,5.87,13.85,3.843.464-.19.718-.676.676-1.182,0,0-.211-1.921-.253-2.344-.021-.211.211-.38.401-.296l2.175.971c.443.211,1.013.106,1.33-.274,3.441-3.99,3.864-9.923.633-14.357-.929-1.288-2.196-2.238-3.631-2.998,1.605.253,3.167.19,4.687-.296"/>
  <path class="st22" d="M53.592,38.892c5.215-1.689,8.361-6.735,7.939-11.992-.048-.496-.418-.901-.908-.992,0,0-1.879-.401-2.301-.486-.211-.042-.296-.317-.169-.464.274-.296,1.583-1.774,1.583-1.774.338-.359.401-.929.148-1.351-2.724-4.497-8.234-6.735-13.47-5.025-1.499.486-2.808,1.372-3.948,2.491.718-1.436,1.14-2.935,1.14-4.518,0-5.489-3.822-10.05-8.952-11.253-.489-.098-.988.121-1.246.549,0,0-.971,1.668-1.182,2.048-.106.19-.401.169-.486.021-.211-.359-1.182-2.069-1.182-2.069-.253-.422-.76-.676-1.225-.549-5.109,1.182-8.952,5.743-8.952,11.232,0,1.583.443,3.083,1.14,4.518-1.14-1.119-2.428-1.985-3.927-2.47-5.236-1.71-10.747.528-13.47,5.025-.253.422-.19.971.148,1.351,0,0,1.288,1.436,1.583,1.752.148.148.042.443-.148.486l-2.322.486c-.486.106-.866.507-.908.992-.461,5.356,2.828,10.325,7.939,11.992,1.52.486,3.083.549,4.687.296-1.436.739-2.703,1.71-3.631,2.998-3.23,4.434-2.808,10.367.633,14.357.317.38.866.486,1.33.274,0,0,1.752-.781,2.154-.971.19-.084.422.084.401.274l-.253,2.365c-.042.486.211.992.676,1.182,4.856,2.027,10.62.591,13.85-3.843.929-1.288,1.457-2.745,1.731-4.328.274,1.583.802,3.061,1.731,4.328,3.23,4.434,8.994,5.87,13.85,3.843.464-.19.718-.676.676-1.182,0,0-.211-1.921-.253-2.344-.021-.211.211-.38.401-.296l2.175.971c.443.211,1.013.106,1.33-.274,3.441-3.99,3.864-9.923.633-14.357-.929-1.288-2.196-2.238-3.631-2.998,1.605.253,3.167.19,4.687-.296"/>
  <path class="st23" d="M53.592,38.892c5.215-1.689,8.361-6.735,7.939-11.992-.048-.496-.418-.901-.908-.992,0,0-1.879-.401-2.301-.486-.211-.042-.296-.317-.169-.464.274-.296,1.583-1.774,1.583-1.774.338-.359.401-.929.148-1.351-2.724-4.497-8.234-6.735-13.47-5.025-1.499.486-2.808,1.372-3.948,2.491.718-1.436,1.14-2.935,1.14-4.518,0-5.489-3.822-10.05-8.952-11.253-.489-.098-.988.121-1.246.549,0,0-.971,1.668-1.182,2.048-.106.19-.401.169-.486.021-.211-.359-1.182-2.069-1.182-2.069-.253-.422-.76-.676-1.225-.549-5.109,1.182-8.952,5.743-8.952,11.232,0,1.583.443,3.083,1.14,4.518-1.14-1.119-2.428-1.985-3.927-2.47-5.236-1.71-10.747.528-13.47,5.025-.253.422-.19.971.148,1.351,0,0,1.288,1.436,1.583,1.752.148.148.042.443-.148.486l-2.322.486c-.486.106-.866.507-.908.992-.461,5.356,2.828,10.325,7.939,11.992,1.52.486,3.083.549,4.687.296-1.436.739-2.703,1.71-3.631,2.998-3.23,4.434-2.808,10.367.633,14.357.317.38.866.486,1.33.274,0,0,1.752-.781,2.154-.971.19-.084.422.084.401.274l-.253,2.365c-.042.486.211.992.676,1.182,4.856,2.027,10.62.591,13.85-3.843.929-1.288,1.457-2.745,1.731-4.328.274,1.583.802,3.061,1.731,4.328,3.23,4.434,8.994,5.87,13.85,3.843.464-.19.718-.676.676-1.182,0,0-.211-1.921-.253-2.344-.021-.211.211-.38.401-.296l2.175.971c.443.211,1.013.106,1.33-.274,3.441-3.99,3.864-9.923.633-14.357-.929-1.288-2.196-2.238-3.631-2.998,1.605.253,3.167.19,4.687-.296"/>
  <path class="st21" d="M53.592,38.892c5.215-1.689,8.361-6.735,7.939-11.992-.048-.496-.418-.901-.908-.992,0,0-1.879-.401-2.301-.486-.211-.042-.296-.317-.169-.464.274-.296,1.583-1.774,1.583-1.774.338-.359.401-.929.148-1.351-2.724-4.497-8.234-6.735-13.47-5.025-1.499.486-2.808,1.372-3.948,2.491.718-1.436,1.14-2.935,1.14-4.518,0-5.489-3.822-10.05-8.952-11.253-.489-.098-.988.121-1.246.549,0,0-.971,1.668-1.182,2.048-.106.19-.401.169-.486.021-.211-.359-1.182-2.069-1.182-2.069-.253-.422-.76-.676-1.225-.549-5.109,1.182-8.952,5.743-8.952,11.232,0,1.583.443,3.083,1.14,4.518-1.14-1.119-2.428-1.985-3.927-2.47-5.236-1.71-10.747.528-13.47,5.025-.253.422-.19.971.148,1.351,0,0,1.288,1.436,1.583,1.752.148.148.042.443-.148.486l-2.322.486c-.486.106-.866.507-.908.992-.461,5.356,2.828,10.325,7.939,11.992,1.52.486,3.083.549,4.687.296-1.436.739-2.703,1.71-3.631,2.998-3.23,4.434-2.808,10.367.633,14.357.317.38.866.486,1.33.274,0,0,1.752-.781,2.154-.971.19-.084.422.084.401.274l-.253,2.365c-.042.486.211.992.676,1.182,4.856,2.027,10.62.591,13.85-3.843.929-1.288,1.457-2.745,1.731-4.328.274,1.583.802,3.061,1.731,4.328,3.23,4.434,8.994,5.87,13.85,3.843.464-.19.718-.676.676-1.182,0,0-.211-1.921-.253-2.344-.021-.211.211-.38.401-.296l2.175.971c.443.211,1.013.106,1.33-.274,3.441-3.99,3.864-9.923.633-14.357-.929-1.288-2.196-2.238-3.631-2.998,1.605.253,3.167.19,4.687-.296"/>
  <path class="st25" d="M53.592,38.892c5.215-1.689,8.361-6.735,7.939-11.992-.048-.496-.418-.901-.908-.992,0,0-1.879-.401-2.301-.486-.211-.042-.296-.317-.169-.464.274-.296,1.583-1.774,1.583-1.774.338-.359.401-.929.148-1.351-2.724-4.497-8.234-6.735-13.47-5.025-1.499.486-2.808,1.372-3.948,2.491.718-1.436,1.14-2.935,1.14-4.518,0-5.489-3.822-10.05-8.952-11.253-.489-.098-.988.121-1.246.549,0,0-.971,1.668-1.182,2.048-.106.19-.401.169-.486.021-.211-.359-1.182-2.069-1.182-2.069-.253-.422-.76-.676-1.225-.549-5.109,1.182-8.952,5.743-8.952,11.232,0,1.583.443,3.083,1.14,4.518-1.14-1.119-2.428-1.985-3.927-2.47-5.236-1.71-10.747.528-13.47,5.025-.253.422-.19.971.148,1.351,0,0,1.288,1.436,1.583,1.752.148.148.042.443-.148.486l-2.322.486c-.486.106-.866.507-.908.992-.461,5.356,2.828,10.325,7.939,11.992,1.52.486,3.083.549,4.687.296-1.436.739-2.703,1.71-3.631,2.998-3.23,4.434-2.808,10.367.633,14.357.317.38.866.486,1.33.274,0,0,1.752-.781,2.154-.971.19-.084.422.084.401.274l-.253,2.365c-.042.486.211.992.676,1.182,4.856,2.027,10.62.591,13.85-3.843.929-1.288,1.457-2.745,1.731-4.328.274,1.583.802,3.061,1.731,4.328,3.23,4.434,8.994,5.87,13.85,3.843.464-.19.718-.676.676-1.182,0,0-.211-1.921-.253-2.344-.021-.211.211-.38.401-.296l2.175.971c.443.211,1.013.106,1.33-.274,3.441-3.99,3.864-9.923.633-14.357-.929-1.288-2.196-2.238-3.631-2.998,1.605.253,3.167.19,4.687-.296"/>
  <path class="st34" d="M53.592,38.892c5.215-1.689,8.361-6.735,7.939-11.992-.048-.496-.418-.901-.908-.992,0,0-1.879-.401-2.301-.486-.211-.042-.296-.317-.169-.464.274-.296,1.583-1.774,1.583-1.774.338-.359.401-.929.148-1.351-2.724-4.497-8.234-6.735-13.47-5.025-1.499.486-2.808,1.372-3.948,2.491.718-1.436,1.14-2.935,1.14-4.518,0-5.489-3.822-10.05-8.952-11.253-.489-.098-.988.121-1.246.549,0,0-.971,1.668-1.182,2.048-.106.19-.401.169-.486.021-.211-.359-1.182-2.069-1.182-2.069-.253-.422-.76-.676-1.225-.549-5.109,1.182-8.952,5.743-8.952,11.232,0,1.583.443,3.083,1.14,4.518-1.14-1.119-2.428-1.985-3.927-2.47-5.236-1.71-10.747.528-13.47,5.025-.253.422-.19.971.148,1.351,0,0,1.288,1.436,1.583,1.752.148.148.042.443-.148.486l-2.322.486c-.486.106-.866.507-.908.992-.461,5.356,2.828,10.325,7.939,11.992,1.52.486,3.083.549,4.687.296-1.436.739-2.703,1.71-3.631,2.998-3.23,4.434-2.808,10.367.633,14.357.317.38.866.486,1.33.274,0,0,1.752-.781,2.154-.971.19-.084.422.084.401.274l-.253,2.365c-.042.486.211.992.676,1.182,4.856,2.027,10.62.591,13.85-3.843.929-1.288,1.457-2.745,1.731-4.328.274,1.583.802,3.061,1.731,4.328,3.23,4.434,8.994,5.87,13.85,3.843.464-.19.718-.676.676-1.182,0,0-.211-1.921-.253-2.344-.021-.211.211-.38.401-.296l2.175.971c.443.211,1.013.106,1.33-.274,3.441-3.99,3.864-9.923.633-14.357-.929-1.288-2.196-2.238-3.631-2.998,1.605.253,3.167.19,4.687-.296"/>
  <path class="st35" d="M53.592,38.892c5.215-1.689,8.361-6.735,7.939-11.992-.048-.496-.418-.901-.908-.992,0,0-1.879-.401-2.301-.486-.211-.042-.296-.317-.169-.464.274-.296,1.583-1.774,1.583-1.774.338-.359.401-.929.148-1.351-2.724-4.497-8.234-6.735-13.47-5.025-1.499.486-2.808,1.372-3.948,2.491.718-1.436,1.14-2.935,1.14-4.518,0-5.489-3.822-10.05-8.952-11.253-.489-.098-.988.121-1.246.549,0,0-.971,1.668-1.182,2.048-.106.19-.401.169-.486.021-.211-.359-1.182-2.069-1.182-2.069-.253-.422-.76-.676-1.225-.549-5.109,1.182-8.952,5.743-8.952,11.232,0,1.583.443,3.083,1.14,4.518-1.14-1.119-2.428-1.985-3.927-2.47-5.236-1.71-10.747.528-13.47,5.025-.253.422-.19.971.148,1.351,0,0,1.288,1.436,1.583,1.752.148.148.042.443-.148.486l-2.322.486c-.486.106-.866.507-.908.992-.461,5.356,2.828,10.325,7.939,11.992,1.52.486,3.083.549,4.687.296-1.436.739-2.703,1.71-3.631,2.998-3.23,4.434-2.808,10.367.633,14.357.317.38.866.486,1.33.274,0,0,1.752-.781,2.154-.971.19-.084.422.084.401.274l-.253,2.365c-.042.486.211.992.676,1.182,4.856,2.027,10.62.591,13.85-3.843.929-1.288,1.457-2.745,1.731-4.328.274,1.583.802,3.061,1.731,4.328,3.23,4.434,8.994,5.87,13.85,3.843.464-.19.718-.676.676-1.182,0,0-.211-1.921-.253-2.344-.021-.211.211-.38.401-.296l2.175.971c.443.211,1.013.106,1.33-.274,3.441-3.99,3.864-9.923.633-14.357-.929-1.288-2.196-2.238-3.631-2.998,1.605.253,3.167.19,4.687-.296"/>
  <path class="st26" d="M33.057,25.076c1.01-.583,1.356-1.874.773-2.884-.583-1.01-1.874-1.356-2.884-.773s-1.356,1.874-.773,2.884c.185.321.452.587.773.773v6.368l-6.064-1.964c-.241-1.141-1.362-1.87-2.503-1.628-1.141.241-1.87,1.362-1.628,2.503.241,1.141,1.362,1.87,2.503,1.628.363-.077.7-.248.976-.497l6.062,1.966-3.748,5.158c-1.16-.122-2.199.719-2.321,1.879-.122,1.16.719,2.199,1.879,2.321s2.199-.719,2.321-1.879c.039-.368-.02-.741-.171-1.079l3.748-5.158,3.733,5.152c-.477,1.064,0,2.313,1.064,2.79,1.064.477,2.313,0,2.79-1.064s0-2.313-1.064-2.79c-.338-.152-.711-.211-1.08-.173l-3.737-5.156,6.045-1.964c.867.779,2.202.708,2.982-.16.779-.867.708-2.202-.16-2.982-.867-.779-2.202-.708-2.982.16-.248.276-.418.611-.495.974l-6.038,1.964v-6.368Z"/>
  <path class="st12" d="M47.023,58.623l-.462-3.363"/>
  <path class="st0" d="M32.001,23.247v9.649"/>
  <path class="st14" d="M32.001,23.247v9.649"/>
  <path class="st15" d="M41.164,29.919l-9.163,2.977"/>
  <path class="st13" d="M37.659,40.708l-5.658-7.812"/>
  <path class="st1" d="M37.797,40.444l-5.658-7.812"/>
  <path class="st16" d="M26.322,40.708l5.679-7.812M22.817,29.919l9.184,2.977"/>
  <path class="st1" d="M32.33,23.247v9.649"/>
  <path class="st29" d="M32.001,25.359c1.166,0,2.111-.945,2.111-2.111s-.945-2.111-2.111-2.111-2.111.945-2.111,2.111.945,2.111,2.111,2.111"/>
  <path class="st27" d="M41.164,32.031c1.166,0,2.111-.945,2.111-2.111s-.945-2.111-2.111-2.111-2.111.945-2.111,2.111.945,2.111,2.111,2.111"/>
  <path class="st28" d="M37.659,42.819c1.166,0,2.111-.945,2.111-2.111s-.945-2.111-2.111-2.111-2.111.945-2.111,2.111.945,2.111,2.111,2.111"/>
  <path class="st32" d="M26.322,42.819c1.166,0,2.111-.945,2.111-2.111s-.945-2.111-2.111-2.111-2.111.945-2.111,2.111.945,2.111,2.111,2.111"/>
  <path class="st33" d="M22.817,32.031c1.166,0,2.111-.945,2.111-2.111s-.945-2.111-2.111-2.111-2.111.945-2.111,2.111.945,2.111,2.111,2.111"/>
  <path class="st31" d="M32.001,38.111c2.88,0,5.215-2.335,5.215-5.215s-2.335-5.215-5.215-5.215h0c-2.88,0-5.215,2.335-5.215,5.215s2.335,5.215,5.215,5.215"/>
  <path class="st11" d="M34.752,4.661c.956.31,3.644,1.59,5.312,3.8,2.646,3.509,2.715,7.913.697,11.401"/>
  <path class="st2" d="M29.539,4.125c-1.6.462-5.633,2.249-7.523,6.366-1.172,2.559-.823,7.654.859,9.799"/>
  <path class="st6" d="M16.046,17.574c.925.042,3.617,1.003,5.675,3.431s4.86,6.29,6.003,7.917"/>
  <path class="st30" d="M31.931,7.837l-1.881-3.86c-.395.38-1.089,1.334-1.089,1.831l2.971,2.029Z"/>
  <path class="st9" d="M58.57,21.444c-1.552-2.145-5.872-4.884-10.094-4.058"/>
  <path class="st8" d="M60.352,27.052c.087,3.167-1.636,9.765-9.237,10.821"/>
  <path class="st10" d="M38.842,36.025l8.842,3.959c1.626.661,5.185,3.332,5.608,7.027.464,4.058-1.024,7.027-2.046,8.215"/>
  <path class="st7" d="M31.849,39.851c.11,3.543-.344,11.574-3.036,15.375"/>
  <path class="st3" d="M4.862,22.171c1.343-2.09,5.582-5.952,11.811-4.685"/>
  <path class="st4" d="M3.148,27.449c.175,3.695,2.599,11.057,10.886,10.951"/>
  <path class="st5" d="M14.034,40.708c-2.597,2.132-6.3,8.118-1.32,15.309"/>
</svg>